<mxfile host="app.diagrams.net" modified="2023-12-26T07:21:34.680Z" agent="Mozilla/5.0 (Macintosh; Intel Mac OS X 10_15_7) AppleWebKit/537.36 (KHTML, like Gecko) Chrome/117.0.0.0 Safari/537.36" version="22.1.11" etag="QkGZUpEm3ddJ3YVrNPpr" type="github">
  <diagram name="第 1 页" id="LC-l8rgkdYvHFOa9KRIA">
    <mxGraphModel>
      <root>
        <mxCell id="0" />
        <mxCell id="1" parent="0" />
      </root>
    </mxGraphModel>
  </diagram>
</mxfile>
